<svg width="158" height="50" viewBox="0 0 158 50" fill="none" xmlns="http://www.w3.org/2000/svg">
<g filter="url(#filter0_dd_1133_13305)">
<path d="M4 24C4 35.598 13.402 45 25 45H121.188H141.5H154C146.553 42.6169 141.5 35.6943 141.5 27.8754V24.9659C141.5 12.8345 131.666 3 119.534 3H25C13.402 3 4 12.402 4 24Z" fill="#FFCC00"/>
<rect x="7" y="6" width="130.5" height="36" rx="18" fill="black" fill-opacity="0.3"/>
<path d="M31.3252 12.6758C31.5598 12.4413 31.9402 12.4413 32.1748 12.6758L43.0742 23.5752C43.3087 23.8098 43.3087 24.1902 43.0742 24.4248L32.1748 35.3242C31.9402 35.5587 31.5598 35.5587 31.3252 35.3242L20.4258 24.4248C20.1913 24.1902 20.1913 23.8098 20.4258 23.5752L31.3252 12.6758Z" fill="#FFCC00" stroke="black"/>
<g clip-path="url(#clip0_1133_13305)">
<path d="M39.2069 23.7975C39.185 23.7481 38.6556 22.5738 37.4787 21.3969C35.9106 19.8287 33.93 19 31.75 19C29.57 19 27.5894 19.8287 26.0212 21.3969C24.8444 22.5738 24.3125 23.75 24.2931 23.7975C24.2647 23.8614 24.25 23.9306 24.25 24.0006C24.25 24.0706 24.2647 24.1398 24.2931 24.2037C24.315 24.2531 24.8444 25.4269 26.0212 26.6038C27.5894 28.1713 29.57 29 31.75 29C33.93 29 35.9106 28.1713 37.4787 26.6038C38.6556 25.4269 39.185 24.2531 39.2069 24.2037C39.2353 24.1398 39.25 24.0706 39.25 24.0006C39.25 23.9306 39.2353 23.8614 39.2069 23.7975ZM31.75 26.5C31.2555 26.5 30.7722 26.3534 30.3611 26.0787C29.9499 25.804 29.6295 25.4135 29.4403 24.9567C29.2511 24.4999 29.2016 23.9972 29.298 23.5123C29.3945 23.0273 29.6326 22.5819 29.9822 22.2322C30.3319 21.8826 30.7773 21.6445 31.2623 21.548C31.7472 21.4516 32.2499 21.5011 32.7067 21.6903C33.1635 21.8795 33.554 22.2 33.8287 22.6111C34.1034 23.0222 34.25 23.5055 34.25 24C34.25 24.663 33.9866 25.2989 33.5178 25.7678C33.0489 26.2366 32.413 26.5 31.75 26.5Z" fill="black"/>
</g>
<path d="M49.5484 29V18.4312H56.2867V20.0205H51.4381V23.1479H55.8692V24.686H51.4381V29H49.5484ZM61.418 29.1611C60.6222 29.1611 59.9361 28.9951 59.3599 28.6631C58.7838 28.3262 58.3394 27.8477 58.0269 27.2275C57.7193 26.6074 57.5655 25.8652 57.5655 25.001V24.9863C57.5655 24.1318 57.7218 23.3945 58.0343 22.7744C58.3468 22.1494 58.7887 21.6709 59.3599 21.3389C59.9361 21.0068 60.6222 20.8408 61.418 20.8408C62.2139 20.8408 62.8975 21.0068 63.4688 21.3389C64.045 21.6709 64.4893 22.147 64.8018 22.7671C65.1143 23.3872 65.2706 24.127 65.2706 24.9863V25.001C65.2706 25.8652 65.1143 26.6074 64.8018 27.2275C64.4942 27.8477 64.0523 28.3262 63.4762 28.6631C62.9049 28.9951 62.2188 29.1611 61.418 29.1611ZM61.418 27.6816C61.838 27.6816 62.1944 27.5767 62.4874 27.3667C62.7852 27.1519 63.0123 26.8467 63.1685 26.4512C63.3248 26.0508 63.4029 25.5698 63.4029 25.0083V24.9937C63.4029 24.4272 63.3248 23.9463 63.1685 23.5508C63.0123 23.1504 62.7852 22.8452 62.4874 22.6353C62.1944 22.4204 61.838 22.313 61.418 22.313C60.9981 22.313 60.6392 22.4204 60.3414 22.6353C60.0435 22.8452 59.8165 23.1504 59.6602 23.5508C59.504 23.9463 59.4259 24.4272 59.4259 24.9937V25.0083C59.4259 25.5698 59.504 26.0508 59.6602 26.4512C59.8165 26.8516 60.0411 27.1567 60.3341 27.3667C60.6319 27.5767 60.9932 27.6816 61.418 27.6816ZM66.8716 29V20.9946H68.6954V22.2251H68.8199C68.9566 21.7954 69.2007 21.4609 69.5523 21.2217C69.9088 20.9824 70.3506 20.8628 70.878 20.8628C71.0147 20.8628 71.149 20.8726 71.2808 20.8921C71.4175 20.9067 71.5298 20.9263 71.6177 20.9507V22.584C71.4713 22.5498 71.3223 22.5254 71.171 22.5107C71.0245 22.4912 70.8707 22.4814 70.7095 22.4814C70.3043 22.4814 69.9503 22.5571 69.6475 22.7085C69.3448 22.8599 69.1104 23.0771 68.9444 23.3604C68.7784 23.6387 68.6954 23.9683 68.6954 24.3491V29H66.8716ZM80.5034 29.2637C79.6636 29.2637 78.9434 29.0391 78.3428 28.5898C77.7471 28.1406 77.2881 27.501 76.9658 26.6709C76.6436 25.8408 76.4824 24.8569 76.4824 23.7192V23.7046C76.4824 22.5669 76.6436 21.5854 76.9658 20.7603C77.2881 19.9302 77.7471 19.2905 78.3428 18.8413C78.9434 18.3921 79.6636 18.1675 80.5034 18.1675C81.3433 18.1675 82.0635 18.3921 82.6641 18.8413C83.2647 19.2905 83.7261 19.9302 84.0484 20.7603C84.3706 21.5854 84.5318 22.5669 84.5318 23.7046V23.7192C84.5318 24.8569 84.3706 25.8408 84.0484 26.6709C83.7261 27.501 83.2647 28.1406 82.6641 28.5898C82.0635 29.0391 81.3433 29.2637 80.5034 29.2637ZM80.5034 27.7329C80.9527 27.7329 81.336 27.5718 81.6533 27.2495C81.9707 26.9272 82.2124 26.4683 82.3784 25.8726C82.5493 25.272 82.6348 24.5542 82.6348 23.7192V23.7046C82.6348 22.8696 82.5493 22.1543 82.3784 21.5586C82.2124 20.958 81.9707 20.499 81.6533 20.1816C81.336 19.8594 80.9527 19.6982 80.5034 19.6982C80.0542 19.6982 79.6709 19.8594 79.3535 20.1816C79.041 20.499 78.7993 20.958 78.6284 21.5586C78.4624 22.1543 78.3794 22.8696 78.3794 23.7046V23.7192C78.3794 24.5542 78.4624 25.272 78.6284 25.8726C78.7993 26.4683 79.041 26.9272 79.3535 27.2495C79.6709 27.5718 80.0542 27.7329 80.5034 27.7329ZM87.0337 29.1392C86.7017 29.1392 86.4233 29.0293 86.1987 28.8096C85.979 28.585 85.8691 28.3115 85.8691 27.9893C85.8691 27.6621 85.979 27.3887 86.1987 27.1689C86.4233 26.9443 86.7017 26.832 87.0337 26.832C87.3706 26.832 87.6489 26.9443 87.8687 27.1689C88.0884 27.3887 88.1982 27.6621 88.1982 27.9893C88.1982 28.3115 88.0884 28.585 87.8687 28.8096C87.6489 29.0293 87.3706 29.1392 87.0337 29.1392ZM93.7251 29.2637C93.0073 29.2637 92.375 29.1294 91.8281 28.8608C91.2812 28.5923 90.8467 28.2285 90.5244 27.7695C90.2021 27.3057 90.0166 26.7856 89.9678 26.2095L89.9604 26.1143H91.6963L91.7109 26.1655C91.7597 26.4536 91.8745 26.7148 92.0552 26.9492C92.2358 27.1836 92.4702 27.3716 92.7583 27.5132C93.0464 27.6499 93.3711 27.7183 93.7324 27.7183C94.1426 27.7183 94.5039 27.6279 94.8164 27.4473C95.1338 27.2666 95.3804 27.0176 95.5561 26.7002C95.7319 26.3779 95.8198 26.0117 95.8198 25.6016V25.5869C95.8198 25.1768 95.7295 24.8154 95.5488 24.5029C95.373 24.1855 95.1289 23.939 94.8164 23.7632C94.5088 23.5825 94.1523 23.4922 93.7471 23.4922C93.4492 23.4922 93.1733 23.5361 92.9194 23.624C92.6704 23.7119 92.4482 23.8438 92.2529 24.0195C92.1553 24.1025 92.0649 24.1953 91.9819 24.2979C91.8989 24.3955 91.8257 24.5029 91.7622 24.6201H90.1435L90.6562 18.4312H96.999V19.9766H92.1284L91.8281 23.1992H91.9599C92.1064 22.96 92.292 22.7573 92.5166 22.5913C92.7412 22.4204 92.9975 22.291 93.2856 22.2031C93.5737 22.1104 93.8813 22.064 94.2085 22.064C94.8725 22.064 95.4585 22.2153 95.9663 22.5181C96.479 22.8159 96.8818 23.2285 97.1748 23.7559C97.4678 24.2783 97.6142 24.8765 97.6142 25.5503V25.5649C97.6142 26.2974 97.4482 26.9419 97.1162 27.4985C96.789 28.0503 96.3325 28.4824 95.7466 28.7949C95.1606 29.1074 94.4868 29.2637 93.7251 29.2637ZM103.167 29V20.9946H104.991V22.2397H105.116C105.287 21.7954 105.562 21.4512 105.943 21.207C106.329 20.9629 106.786 20.8408 107.313 20.8408C107.674 20.8408 107.999 20.8994 108.287 21.0166C108.58 21.1338 108.831 21.2998 109.041 21.5146C109.251 21.7295 109.413 21.9858 109.525 22.2837H109.657C109.789 21.9956 109.972 21.7441 110.206 21.5293C110.445 21.3096 110.724 21.1411 111.041 21.0239C111.363 20.9019 111.71 20.8408 112.081 20.8408C112.618 20.8408 113.077 20.9482 113.458 21.1631C113.844 21.373 114.139 21.6758 114.344 22.0713C114.554 22.4668 114.659 22.9404 114.659 23.4922V29H112.835V23.939C112.835 23.5874 112.782 23.2969 112.674 23.0674C112.572 22.8379 112.413 22.6646 112.198 22.5474C111.983 22.4302 111.712 22.3716 111.385 22.3716C111.068 22.3716 110.792 22.4448 110.558 22.5913C110.323 22.7329 110.14 22.9258 110.008 23.1699C109.881 23.4141 109.818 23.6899 109.818 23.9976V29H107.994V23.8071C107.994 23.5093 107.935 23.2529 107.818 23.0381C107.706 22.8232 107.54 22.6597 107.32 22.5474C107.105 22.4302 106.849 22.3716 106.551 22.3716C106.253 22.3716 105.985 22.4497 105.746 22.606C105.511 22.7573 105.326 22.9673 105.189 23.2358C105.057 23.4995 104.991 23.7974 104.991 24.1294V29H103.167ZM116.597 29V20.9946H118.413V29H116.597ZM117.513 19.6543C117.215 19.6543 116.958 19.5493 116.744 19.3394C116.529 19.1294 116.421 18.8779 116.421 18.585C116.421 18.2822 116.529 18.0283 116.744 17.8232C116.958 17.6133 117.215 17.5083 117.513 17.5083C117.81 17.5083 118.064 17.6133 118.274 17.8232C118.489 18.0283 118.597 18.2822 118.597 18.585C118.597 18.8779 118.489 19.1294 118.274 19.3394C118.064 19.5493 117.81 19.6543 117.513 19.6543ZM121.787 29.1392C121.455 29.1392 121.177 29.0293 120.952 28.8096C120.732 28.585 120.622 28.3115 120.622 27.9893C120.622 27.6621 120.732 27.3887 120.952 27.1689C121.177 26.9443 121.455 26.832 121.787 26.832C122.124 26.832 122.402 26.9443 122.622 27.1689C122.842 27.3887 122.952 27.6621 122.952 27.9893C122.952 28.3115 122.842 28.585 122.622 28.8096C122.402 29.0293 122.124 29.1392 121.787 29.1392Z" fill="black"/>
</g>
<defs>
<filter id="filter0_dd_1133_13305" x="0" y="0" width="158" height="50" filterUnits="userSpaceOnUse" color-interpolation-filters="sRGB">
<feFlood flood-opacity="0" result="BackgroundImageFix"/>
<feColorMatrix in="SourceAlpha" type="matrix" values="0 0 0 0 0 0 0 0 0 0 0 0 0 0 0 0 0 0 127 0" result="hardAlpha"/>
<feMorphology radius="1" operator="dilate" in="SourceAlpha" result="effect1_dropShadow_1133_13305"/>
<feOffset dy="1"/>
<feGaussianBlur stdDeviation="1.5"/>
<feColorMatrix type="matrix" values="0 0 0 0 0 0 0 0 0 0 0 0 0 0 0 0 0 0 0.15 0"/>
<feBlend mode="normal" in2="BackgroundImageFix" result="effect1_dropShadow_1133_13305"/>
<feColorMatrix in="SourceAlpha" type="matrix" values="0 0 0 0 0 0 0 0 0 0 0 0 0 0 0 0 0 0 127 0" result="hardAlpha"/>
<feOffset dy="1"/>
<feGaussianBlur stdDeviation="1"/>
<feColorMatrix type="matrix" values="0 0 0 0 0 0 0 0 0 0 0 0 0 0 0 0 0 0 0.3 0"/>
<feBlend mode="normal" in2="effect1_dropShadow_1133_13305" result="effect2_dropShadow_1133_13305"/>
<feBlend mode="normal" in="SourceGraphic" in2="effect2_dropShadow_1133_13305" result="shape"/>
</filter>
<clipPath id="clip0_1133_13305">
<rect width="16" height="16" fill="white" transform="translate(23.75 16)"/>
</clipPath>
</defs>
</svg>
